<mxfile host="app.diagrams.net" agent="Mozilla/5.0 (Windows NT 10.0; Win64; x64) AppleWebKit/537.36 (KHTML, like Gecko) Chrome/131.0.0.0 Safari/537.36" version="25.0.3">
  <diagram id="C5RBs43oDa-KdzZeNtuy" name="Page-1">
    <mxGraphModel dx="1434" dy="772" grid="1" gridSize="10" guides="1" tooltips="1" connect="1" arrows="1" fold="1" page="1" pageScale="1" pageWidth="827" pageHeight="1169" math="0" shadow="0">
      <root>
        <mxCell id="WIyWlLk6GJQsqaUBKTNV-0" />
        <mxCell id="WIyWlLk6GJQsqaUBKTNV-1" parent="WIyWlLk6GJQsqaUBKTNV-0" />
        <mxCell id="xBqng6axwrk9uRYtwMH--4" value="終了" style="strokeWidth=2;html=1;shape=mxgraph.flowchart.terminator;whiteSpace=wrap;" vertex="1" parent="WIyWlLk6GJQsqaUBKTNV-1">
          <mxGeometry x="700" y="630" width="100" height="60" as="geometry" />
        </mxCell>
        <mxCell id="xBqng6axwrk9uRYtwMH--5" value="開始" style="strokeWidth=2;html=1;shape=mxgraph.flowchart.start_1;whiteSpace=wrap;" vertex="1" parent="WIyWlLk6GJQsqaUBKTNV-1">
          <mxGeometry x="155" y="10" width="100" height="60" as="geometry" />
        </mxCell>
        <mxCell id="xBqng6axwrk9uRYtwMH--9" value="" style="edgeStyle=orthogonalEdgeStyle;rounded=0;orthogonalLoop=1;jettySize=auto;html=1;" edge="1" parent="WIyWlLk6GJQsqaUBKTNV-1" source="xBqng6axwrk9uRYtwMH--6" target="xBqng6axwrk9uRYtwMH--8">
          <mxGeometry relative="1" as="geometry" />
        </mxCell>
        <mxCell id="xBqng6axwrk9uRYtwMH--6" value="hand に整数を入力" style="html=1;strokeWidth=2;shape=manualInput;whiteSpace=wrap;rounded=1;size=27;arcSize=11;" vertex="1" parent="WIyWlLk6GJQsqaUBKTNV-1">
          <mxGeometry x="145" y="100" width="120" height="70" as="geometry" />
        </mxCell>
        <mxCell id="xBqng6axwrk9uRYtwMH--7" style="edgeStyle=orthogonalEdgeStyle;rounded=0;orthogonalLoop=1;jettySize=auto;html=1;entryX=0.5;entryY=0.143;entryDx=0;entryDy=0;entryPerimeter=0;" edge="1" parent="WIyWlLk6GJQsqaUBKTNV-1" source="xBqng6axwrk9uRYtwMH--5" target="xBqng6axwrk9uRYtwMH--6">
          <mxGeometry relative="1" as="geometry" />
        </mxCell>
        <mxCell id="xBqng6axwrk9uRYtwMH--10" value="yes" style="edgeStyle=orthogonalEdgeStyle;rounded=0;orthogonalLoop=1;jettySize=auto;html=1;exitX=0.5;exitY=1;exitDx=0;exitDy=0;entryX=0.5;entryY=0;entryDx=0;entryDy=0;" edge="1" parent="WIyWlLk6GJQsqaUBKTNV-1" source="xBqng6axwrk9uRYtwMH--8" target="xBqng6axwrk9uRYtwMH--13">
          <mxGeometry relative="1" as="geometry">
            <mxPoint x="215" y="410" as="targetPoint" />
          </mxGeometry>
        </mxCell>
        <mxCell id="xBqng6axwrk9uRYtwMH--11" value="" style="edgeStyle=orthogonalEdgeStyle;rounded=0;orthogonalLoop=1;jettySize=auto;html=1;entryX=0.5;entryY=0;entryDx=0;entryDy=0;entryPerimeter=0;" edge="1" parent="WIyWlLk6GJQsqaUBKTNV-1" target="xBqng6axwrk9uRYtwMH--4">
          <mxGeometry relative="1" as="geometry">
            <mxPoint x="740" y="660" as="targetPoint" />
            <mxPoint x="520" y="240" as="sourcePoint" />
            <Array as="points">
              <mxPoint x="750" y="240" />
            </Array>
          </mxGeometry>
        </mxCell>
        <mxCell id="xBqng6axwrk9uRYtwMH--48" value="no" style="edgeStyle=orthogonalEdgeStyle;rounded=0;orthogonalLoop=1;jettySize=auto;html=1;" edge="1" parent="WIyWlLk6GJQsqaUBKTNV-1" source="xBqng6axwrk9uRYtwMH--8" target="xBqng6axwrk9uRYtwMH--47">
          <mxGeometry relative="1" as="geometry" />
        </mxCell>
        <mxCell id="xBqng6axwrk9uRYtwMH--8" value="hand &amp;gt;= 0 &amp;amp;&amp;amp; hand &amp;lt;= 2" style="rhombus;whiteSpace=wrap;html=1;strokeWidth=2;rounded=1;arcSize=11;" vertex="1" parent="WIyWlLk6GJQsqaUBKTNV-1">
          <mxGeometry x="120" y="200" width="170" height="80" as="geometry" />
        </mxCell>
        <mxCell id="xBqng6axwrk9uRYtwMH--15" value="" style="edgeStyle=orthogonalEdgeStyle;rounded=0;orthogonalLoop=1;jettySize=auto;html=1;" edge="1" parent="WIyWlLk6GJQsqaUBKTNV-1" source="xBqng6axwrk9uRYtwMH--13" target="xBqng6axwrk9uRYtwMH--14">
          <mxGeometry relative="1" as="geometry" />
        </mxCell>
        <mxCell id="xBqng6axwrk9uRYtwMH--13" value="cpHand ← 乱数(0,2)" style="rounded=1;whiteSpace=wrap;html=1;absoluteArcSize=1;arcSize=14;strokeWidth=2;" vertex="1" parent="WIyWlLk6GJQsqaUBKTNV-1">
          <mxGeometry x="140" y="350" width="130" height="40" as="geometry" />
        </mxCell>
        <mxCell id="xBqng6axwrk9uRYtwMH--19" value="no" style="edgeStyle=orthogonalEdgeStyle;rounded=0;orthogonalLoop=1;jettySize=auto;html=1;" edge="1" parent="WIyWlLk6GJQsqaUBKTNV-1" source="xBqng6axwrk9uRYtwMH--14" target="xBqng6axwrk9uRYtwMH--18">
          <mxGeometry relative="1" as="geometry" />
        </mxCell>
        <mxCell id="xBqng6axwrk9uRYtwMH--45" value="yes" style="edgeStyle=orthogonalEdgeStyle;rounded=0;orthogonalLoop=1;jettySize=auto;html=1;" edge="1" parent="WIyWlLk6GJQsqaUBKTNV-1" source="xBqng6axwrk9uRYtwMH--14" target="xBqng6axwrk9uRYtwMH--44">
          <mxGeometry relative="1" as="geometry" />
        </mxCell>
        <mxCell id="xBqng6axwrk9uRYtwMH--14" value="cpHand == hand" style="rhombus;whiteSpace=wrap;html=1;rounded=1;arcSize=14;strokeWidth=2;" vertex="1" parent="WIyWlLk6GJQsqaUBKTNV-1">
          <mxGeometry x="147.5" y="450" width="115" height="80" as="geometry" />
        </mxCell>
        <mxCell id="xBqng6axwrk9uRYtwMH--28" value="yes" style="edgeStyle=orthogonalEdgeStyle;rounded=0;orthogonalLoop=1;jettySize=auto;html=1;exitX=1;exitY=0.5;exitDx=0;exitDy=0;" edge="1" parent="WIyWlLk6GJQsqaUBKTNV-1" source="xBqng6axwrk9uRYtwMH--18" target="xBqng6axwrk9uRYtwMH--27">
          <mxGeometry relative="1" as="geometry" />
        </mxCell>
        <mxCell id="xBqng6axwrk9uRYtwMH--31" value="no" style="edgeStyle=orthogonalEdgeStyle;rounded=0;orthogonalLoop=1;jettySize=auto;html=1;entryX=0;entryY=0.5;entryDx=0;entryDy=0;exitX=0.5;exitY=1;exitDx=0;exitDy=0;" edge="1" parent="WIyWlLk6GJQsqaUBKTNV-1" source="xBqng6axwrk9uRYtwMH--18" target="xBqng6axwrk9uRYtwMH--34">
          <mxGeometry relative="1" as="geometry">
            <mxPoint x="350" y="560" as="targetPoint" />
            <Array as="points">
              <mxPoint x="405" y="660" />
            </Array>
          </mxGeometry>
        </mxCell>
        <mxCell id="xBqng6axwrk9uRYtwMH--18" value="(hand == 0 &amp;amp;&amp;amp; cpHand == 1) ||&lt;br&gt;(hand == 1 &amp;amp;&amp;amp; cpHand == 2) ||&lt;br&gt;(hand == 2 &amp;amp;&amp;amp; cpHand == 0)" style="rhombus;whiteSpace=wrap;html=1;rounded=1;arcSize=14;strokeWidth=2;" vertex="1" parent="WIyWlLk6GJQsqaUBKTNV-1">
          <mxGeometry x="300" y="415" width="220" height="150" as="geometry" />
        </mxCell>
        <mxCell id="xBqng6axwrk9uRYtwMH--40" style="edgeStyle=orthogonalEdgeStyle;rounded=0;orthogonalLoop=1;jettySize=auto;html=1;" edge="1" parent="WIyWlLk6GJQsqaUBKTNV-1" source="xBqng6axwrk9uRYtwMH--27">
          <mxGeometry relative="1" as="geometry">
            <mxPoint x="750" y="570" as="targetPoint" />
          </mxGeometry>
        </mxCell>
        <mxCell id="xBqng6axwrk9uRYtwMH--27" value="勝ち を表示" style="whiteSpace=wrap;html=1;rounded=1;arcSize=14;strokeWidth=2;" vertex="1" parent="WIyWlLk6GJQsqaUBKTNV-1">
          <mxGeometry x="490" y="540" width="120" height="60" as="geometry" />
        </mxCell>
        <mxCell id="xBqng6axwrk9uRYtwMH--34" value="負け を表示" style="rounded=1;whiteSpace=wrap;html=1;arcSize=14;strokeWidth=2;" vertex="1" parent="WIyWlLk6GJQsqaUBKTNV-1">
          <mxGeometry x="490" y="630" width="120" height="60" as="geometry" />
        </mxCell>
        <mxCell id="xBqng6axwrk9uRYtwMH--38" style="edgeStyle=orthogonalEdgeStyle;rounded=0;orthogonalLoop=1;jettySize=auto;html=1;entryX=0;entryY=0.5;entryDx=0;entryDy=0;entryPerimeter=0;" edge="1" parent="WIyWlLk6GJQsqaUBKTNV-1" source="xBqng6axwrk9uRYtwMH--34" target="xBqng6axwrk9uRYtwMH--4">
          <mxGeometry relative="1" as="geometry" />
        </mxCell>
        <mxCell id="xBqng6axwrk9uRYtwMH--46" style="edgeStyle=orthogonalEdgeStyle;rounded=0;orthogonalLoop=1;jettySize=auto;html=1;entryX=-0.008;entryY=0.643;entryDx=0;entryDy=0;entryPerimeter=0;" edge="1" parent="WIyWlLk6GJQsqaUBKTNV-1" source="xBqng6axwrk9uRYtwMH--44" target="xBqng6axwrk9uRYtwMH--6">
          <mxGeometry relative="1" as="geometry">
            <mxPoint x="70" y="140" as="targetPoint" />
            <Array as="points">
              <mxPoint x="70" y="220" />
              <mxPoint x="71" y="220" />
              <mxPoint x="71" y="145" />
            </Array>
          </mxGeometry>
        </mxCell>
        <mxCell id="xBqng6axwrk9uRYtwMH--44" value="あいこ を表示" style="whiteSpace=wrap;html=1;rounded=1;arcSize=14;strokeWidth=2;" vertex="1" parent="WIyWlLk6GJQsqaUBKTNV-1">
          <mxGeometry x="20" y="310" width="100" height="60" as="geometry" />
        </mxCell>
        <mxCell id="xBqng6axwrk9uRYtwMH--47" value="エラーを表示" style="whiteSpace=wrap;html=1;strokeWidth=2;rounded=1;arcSize=11;" vertex="1" parent="WIyWlLk6GJQsqaUBKTNV-1">
          <mxGeometry x="395" y="210" width="120" height="60" as="geometry" />
        </mxCell>
      </root>
    </mxGraphModel>
  </diagram>
</mxfile>
